<svg width="1440" height="30" viewBox="0 0 1440 30" fill="none" xmlns="http://www.w3.org/2000/svg">
<path d="M2.62268e-06 30.0001L1440 30L1440 7.59434C1438.08 7.85404 1436.14 7.98367 1434.2 7.98234C1427.32 7.98234 1420.97 6.40734 1416.77 3.66034C1414.68 2.3595 1412.39 1.43042 1409.98 0.914342C1404.55 -0.304345 1398.92 -0.304345 1393.5 0.914344C1391.09 1.43126 1388.79 2.36028 1386.7 3.66034C1382.53 6.39134 1376.22 7.96735 1369.38 7.98235L1369.18 7.98235C1362.33 7.96735 1356.02 6.39135 1351.85 3.66035C1349.76 2.36007 1347.46 1.43104 1345.05 0.914348C1339.62 -0.304656 1333.99 -0.304655 1328.57 0.914349C1326.16 1.43043 1323.86 2.35951 1321.77 3.66035C1317.58 6.40735 1311.23 7.98235 1304.34 7.98235C1297.46 7.98235 1291.11 6.40735 1286.91 3.66035C1284.82 2.35987 1282.53 1.43082 1280.12 0.914354C1274.69 -0.304633 1269.06 -0.304633 1263.64 0.914355C1261.23 1.43127 1258.93 2.36029 1256.84 3.66036C1252.67 6.39136 1246.35 7.96736 1239.51 7.98236L1239.31 7.98236C1232.47 7.96736 1226.15 6.39136 1221.98 3.66036C1219.89 2.35952 1217.6 1.43044 1215.19 0.914359C1209.76 -0.304627 1204.13 -0.304627 1198.71 0.914361C1196.3 1.43044 1194 2.35952 1191.91 3.66036C1187.74 6.39136 1181.43 7.96736 1174.58 7.98236L1174.38 7.98236C1167.54 7.96736 1161.23 6.39136 1157.05 3.66036C1154.96 2.3603 1152.67 1.43128 1150.26 0.914365C1144.83 -0.304622 1139.2 -0.304621 1133.78 0.914366C1131.37 1.43127 1129.07 2.36028 1126.98 3.66037C1122.81 6.39137 1116.49 7.96737 1109.65 7.98237L1109.45 7.98237C1102.61 7.96737 1096.29 6.39137 1092.12 3.66037C1090.03 2.3603 1087.74 1.43128 1085.33 0.914371C1079.9 -0.304632 1074.27 -0.304632 1068.85 0.914372C1066.44 1.43082 1064.14 2.35987 1062.05 3.66037C1057.88 6.39137 1051.57 7.96737 1044.72 7.98237L1044.52 7.98237C1037.68 7.96737 1031.36 6.39138 1027.19 3.66038C1025.1 2.35932 1022.8 1.43024 1020.4 0.914376C1014.97 -0.304627 1009.34 -0.304626 1003.91 0.914378C1001.51 1.43129 999.208 2.36031 997.119 3.66038C992.926 6.40738 986.573 7.98238 979.689 7.98238C972.805 7.98238 966.452 6.40738 962.26 3.66038C960.172 2.36053 957.874 1.43151 955.469 0.914382C950.042 -0.304605 944.412 -0.304604 938.984 0.914383C936.58 1.43184 934.284 2.36085 932.196 3.66038C928.003 6.40738 921.65 7.98238 914.766 7.98239C907.882 7.98239 901.528 6.40739 897.335 3.66039C895.245 2.35901 892.945 1.42992 890.537 0.914388C885.11 -0.304615 879.48 -0.304615 874.053 0.914389C871.647 1.43086 869.349 2.35991 867.26 3.66039C863.09 6.39139 856.773 7.96739 849.93 7.98239L849.73 7.98239C842.887 7.96739 836.571 6.39139 832.402 3.66039C830.313 2.35944 828.014 1.43036 825.608 0.914393C820.181 -0.30461 814.551 -0.304609 809.124 0.914395C806.718 1.43048 804.42 2.35955 802.331 3.6604C798.16 6.3914 791.844 7.9674 785.002 7.9824L784.802 7.9824C777.96 7.9674 771.644 6.3914 767.473 3.6604C765.384 2.36031 763.086 1.43129 760.68 0.914399C755.253 -0.304588 749.622 -0.304587 744.195 0.9144C741.789 1.4313 739.491 2.36032 737.401 3.6604C733.208 6.4074 726.855 7.9824 719.971 7.9824C713.087 7.9824 706.732 6.4074 702.541 3.6604C700.452 2.36032 698.154 1.4313 695.748 0.914405C690.321 -0.304582 684.691 -0.304582 679.263 0.914406C676.857 1.43087 674.559 2.35993 672.47 3.66041C668.3 6.39141 661.983 7.96741 655.14 7.98241L654.94 7.98241C648.097 7.96741 641.781 6.39141 637.61 3.66041C635.521 2.36052 633.224 1.43151 630.818 0.91441C625.391 -0.304576 619.76 -0.304576 614.333 0.914412C611.927 1.43049 609.629 2.35957 607.54 3.66041C603.369 6.39141 597.054 7.96741 590.212 7.98241L590.012 7.98241C583.17 7.96741 576.854 6.39141 572.684 3.66042C570.595 2.35947 568.296 1.43039 565.89 0.914416C560.462 -0.304587 554.832 -0.304587 549.404 0.914417C546.998 1.43023 544.699 2.35933 542.61 3.66042C538.418 6.40742 532.066 7.98242 525.182 7.98242C518.298 7.98242 511.945 6.40742 507.752 3.66042C505.663 2.36052 503.365 1.43151 500.959 0.914422C495.532 -0.304581 489.902 -0.304581 484.475 0.914423C482.069 1.43027 479.771 2.35936 477.683 3.66042C473.483 6.40742 467.134 7.98242 460.251 7.98243C453.368 7.98243 447.014 6.40743 442.821 3.66043C440.732 2.36011 438.433 1.43108 436.027 0.914427C430.6 -0.304576 424.97 -0.304575 419.543 0.914429C417.138 1.43116 414.843 2.3602 412.755 3.66043C408.561 6.40743 402.208 7.98243 395.324 7.98243C388.441 7.98243 382.085 6.40743 377.892 3.66043C375.803 2.36051 373.505 1.4315 371.099 0.914433C365.673 -0.304686 360.043 -0.304685 354.616 0.914434C352.21 1.4303 349.911 2.35938 347.822 3.66044C343.653 6.39144 337.337 7.96744 330.494 7.98244L330.293 7.98244C323.451 7.96744 317.135 6.39144 312.965 3.66044C310.876 2.36051 308.578 1.4315 306.172 0.914439C300.745 -0.304565 295.114 -0.304564 289.687 0.91444C287.281 1.43136 284.982 2.36037 282.892 3.66044C278.699 6.40744 272.346 7.98244 265.462 7.98244C258.578 7.98244 252.226 6.40744 248.035 3.66044C245.946 2.36012 243.647 1.43109 241.241 0.914444C235.814 -0.304542 230.184 -0.304542 224.756 0.914446C222.351 1.43118 220.053 2.36022 217.964 3.66045C213.771 6.40745 207.419 7.98245 200.535 7.98245C193.651 7.98245 187.299 6.40745 183.099 3.66045C181.011 2.36081 178.714 1.43181 176.31 0.91445C170.883 -0.304553 165.253 -0.304552 159.826 0.914451C157.419 1.43042 155.12 2.3595 153.031 3.66045C148.861 6.39145 142.546 7.96745 135.703 7.98245L135.504 7.98245C128.661 7.96745 122.347 6.39145 118.176 3.66046C116.086 2.36037 113.787 1.43135 111.381 0.914456C105.954 -0.304548 100.323 -0.304547 94.8955 0.914457C92.4893 1.43043 90.1906 2.35951 88.1016 3.66046C83.9105 6.40646 77.5565 7.98146 70.6696 7.98246C63.7826 7.98346 57.4344 6.40746 53.2405 3.66046C51.1521 2.35973 48.8541 1.43065 46.4485 0.914461C41.0215 -0.304542 35.3915 -0.304541 29.9645 0.914463C27.5585 1.43136 25.26 2.36038 23.1705 3.66046C19.0005 6.39146 12.6836 7.96746 5.84155 7.98246L5.64148 7.98246C3.76563 7.98076 1.89197 7.85616 0.0324714 7.60947L0.0329616 30.0001L2.62268e-06 30.0001Z" fill="#F7E9D0"/>
</svg>
