<svg width="1440" height="105" viewBox="0 0 1440 105" fill="none" xmlns="http://www.w3.org/2000/svg">
<g filter="url(#filter0_d_551_207)">
<path d="M1440 0.00012207L0 0.00012207L0 62.3881C1.92039 62.1284 3.85613 61.9987 5.794 62.0001C12.678 62.0001 19.031 63.5751 23.224 66.3221C25.3127 67.6229 27.611 68.552 30.017 69.0681C35.4438 70.2868 41.0732 70.2868 46.5 69.0681C48.9057 68.5512 51.2039 67.6221 53.293 66.3221C57.464 63.5911 63.78 62.0151 70.621 62.0001H70.821C77.663 62.0151 83.979 63.5911 88.149 66.3221C90.2387 67.6224 92.5376 68.5514 94.944 69.0681C100.372 70.2871 106.002 70.2871 111.43 69.0681C113.836 68.552 116.134 67.6229 118.223 66.3221C122.417 63.5751 128.771 62.0001 135.656 62.0001C142.541 62.0001 148.891 63.5751 153.083 66.3221C155.172 67.6226 157.47 68.5516 159.876 69.0681C165.303 70.2871 170.934 70.2871 176.361 69.0681C178.767 68.5512 181.065 67.6221 183.154 66.3221C187.325 63.5911 193.642 62.0151 200.484 62.0001H200.684C207.527 62.0151 213.843 63.5911 218.013 66.3221C220.102 67.6229 222.4 68.552 224.806 69.0681C230.233 70.2871 235.864 70.2871 241.291 69.0681C243.697 68.552 245.995 67.6229 248.084 66.3221C252.254 63.5911 258.571 62.0151 265.414 62.0001H265.614C272.455 62.0151 278.771 63.5911 282.943 66.3221C285.032 67.6221 287.33 68.5512 289.736 69.0681C295.163 70.2871 300.794 70.2871 306.221 69.0681C308.627 68.5512 310.926 67.6222 313.015 66.3221C317.186 63.5911 323.502 62.0151 330.345 62.0001H330.545C337.388 62.0151 343.704 63.5911 347.873 66.3221C349.962 67.6221 352.26 68.5512 354.666 69.0681C360.093 70.2871 365.723 70.2871 371.15 69.0681C373.556 68.5516 375.854 67.6226 377.943 66.3221C382.114 63.5911 388.43 62.0151 395.274 62.0001H395.474C402.316 62.0151 408.633 63.5911 412.805 66.3221C414.894 67.6231 417.193 68.5522 419.6 69.0681C425.027 70.2871 430.657 70.2871 436.084 69.0681C438.49 68.5512 440.788 67.6221 442.877 66.3221C447.07 63.5751 453.423 62.0001 460.307 62.0001C467.191 62.0001 473.544 63.5751 477.736 66.3221C479.824 67.6219 482.122 68.551 484.527 69.0681C489.954 70.2871 495.585 70.2871 501.012 69.0681C503.416 68.5506 505.712 67.6216 507.8 66.3221C511.993 63.5751 518.346 62.0001 525.23 62.0001C532.114 62.0001 538.468 63.5751 542.661 66.3221C544.751 67.6235 547.051 68.5526 549.459 69.0681C554.886 70.2871 560.516 70.2871 565.943 69.0681C568.349 68.5516 570.647 67.6226 572.736 66.3221C576.906 63.5911 583.223 62.0151 590.066 62.0001H590.266C597.109 62.0151 603.425 63.5911 607.594 66.3221C609.683 67.623 611.982 68.5521 614.388 69.0681C619.815 70.2871 625.445 70.2871 630.872 69.0681C633.278 68.552 635.576 67.6229 637.665 66.3221C641.836 63.5911 648.152 62.0151 654.994 62.0001H655.194C662.036 62.0151 668.352 63.5911 672.523 66.3221C674.612 67.6222 676.91 68.5512 679.316 69.0681C684.743 70.2871 690.374 70.2871 695.801 69.0681C698.207 68.5512 700.505 67.6222 702.595 66.3221C706.788 63.5751 713.141 62.0001 720.025 62.0001C726.909 62.0001 733.264 63.5751 737.455 66.3221C739.544 67.6222 741.842 68.5512 744.248 69.0681C749.675 70.2871 755.306 70.2871 760.733 69.0681C763.139 68.5516 765.437 67.6226 767.526 66.3221C771.696 63.5911 778.013 62.0151 784.856 62.0001H785.056C791.899 62.0151 798.215 63.5911 802.386 66.3221C804.475 67.622 806.773 68.551 809.178 69.0681C814.605 70.2871 820.236 70.2871 825.663 69.0681C828.069 68.552 830.367 67.6229 832.456 66.3221C836.627 63.5911 842.942 62.0151 849.784 62.0001H849.984C856.826 62.0151 863.142 63.5911 867.312 66.3221C869.401 67.623 871.7 68.5521 874.106 69.0681C879.534 70.2871 885.164 70.2871 890.592 69.0681C892.998 68.5523 895.297 67.6232 897.386 66.3221C901.578 63.5751 907.93 62.0001 914.814 62.0001C921.698 62.0001 928.051 63.5751 932.244 66.3221C934.333 67.622 936.631 68.551 939.037 69.0681C944.464 70.2871 950.094 70.2871 955.521 69.0681C957.927 68.5522 960.225 67.6231 962.313 66.3221C966.513 63.5751 972.862 62.0001 979.745 62.0001C986.628 62.0001 992.982 63.5751 997.175 66.3221C999.264 67.6224 1001.56 68.5514 1003.97 69.0681C1009.4 70.2871 1015.03 70.2871 1020.45 69.0681C1022.86 68.5513 1025.16 67.6223 1027.24 66.3221C1031.44 63.5751 1037.79 62.0001 1044.68 62.0001C1051.56 62.0001 1057.91 63.5751 1062.11 66.3221C1064.2 67.622 1066.49 68.551 1068.9 69.0681C1074.33 70.2872 1079.96 70.2872 1085.38 69.0681C1087.79 68.5522 1090.09 67.6231 1092.18 66.3221C1096.35 63.5911 1102.66 62.0151 1109.51 62.0001H1109.71C1116.55 62.0151 1122.86 63.5911 1127.03 66.3221C1129.12 67.622 1131.42 68.551 1133.83 69.0681C1139.25 70.2871 1144.89 70.2871 1150.31 69.0681C1152.72 68.5512 1155.02 67.6221 1157.11 66.3221C1161.3 63.5751 1167.65 62.0001 1174.54 62.0001C1181.42 62.0001 1187.77 63.5751 1191.96 66.3221C1194.05 67.6224 1196.35 68.5514 1198.76 69.0681C1204.19 70.2871 1209.82 70.2871 1215.24 69.0681C1217.65 68.5513 1219.95 67.6223 1222.04 66.3221C1226.23 63.5751 1232.58 62.0001 1239.46 62.0001C1246.35 62.0001 1252.7 63.5751 1256.9 66.3221C1258.99 67.6217 1261.29 68.5507 1263.69 69.0681C1269.12 70.2871 1274.75 70.2871 1280.17 69.0681C1282.58 68.5521 1284.88 67.623 1286.97 66.3221C1291.14 63.5911 1297.45 62.0151 1304.3 62.0001H1304.5C1311.34 62.0151 1317.65 63.5911 1321.82 66.3221C1323.91 67.6222 1326.21 68.5512 1328.62 69.0681C1334.05 70.2871 1339.68 70.2871 1345.1 69.0681C1347.51 68.5521 1349.81 67.623 1351.9 66.3221C1356.09 63.5761 1362.44 62.0011 1369.33 62.0001C1376.22 61.9991 1382.57 63.5751 1386.76 66.3221C1388.85 67.6228 1391.15 68.5519 1393.55 69.0681C1398.98 70.2871 1404.61 70.2871 1410.04 69.0681C1412.44 68.5512 1414.74 67.6222 1416.83 66.3221C1421 63.5911 1427.32 62.0151 1434.16 62.0001H1434.36C1436.23 62.0018 1438.11 62.1264 1439.97 62.3731V0.00012207H1440Z" fill="#90D5AC"/>
</g>
<defs>
<filter id="filter0_d_551_207" x="-27.6" y="-20.6" width="1495.2" height="125.182" filterUnits="userSpaceOnUse" color-interpolation-filters="sRGB">
<feFlood flood-opacity="0" result="BackgroundImageFix"/>
<feColorMatrix in="SourceAlpha" type="matrix" values="0 0 0 0 0 0 0 0 0 0 0 0 0 0 0 0 0 0 127 0" result="hardAlpha"/>
<feOffset dy="7"/>
<feGaussianBlur stdDeviation="13.8"/>
<feComposite in2="hardAlpha" operator="out"/>
<feColorMatrix type="matrix" values="0 0 0 0 0 0 0 0 0 0 0 0 0 0 0 0 0 0 0.06 0"/>
<feBlend mode="normal" in2="BackgroundImageFix" result="effect1_dropShadow_551_207"/>
<feBlend mode="normal" in="SourceGraphic" in2="effect1_dropShadow_551_207" result="shape"/>
</filter>
</defs>
</svg>
