<svg width="158" height="36" viewBox="0 0 158 36" fill="none" xmlns="http://www.w3.org/2000/svg">
<path d="M10.9645 6.90234C4.54855 6.90234 1.0998e-05 11.5995 1.0998e-05 17.8972C-0.000626334 18.3576 0.0264369 18.8177 0.081054 19.2749H21.6925C22.2328 12.3626 17.9173 6.90234 10.9645 6.90234ZM5.84862 15.2667C6.52397 13.0143 8.25289 11.4104 10.9138 11.4104C13.5747 11.4104 15.2665 12.9738 15.8777 15.2667H5.84862ZM11.0421 24.3131C8.99916 24.3131 7.2331 23.4317 6.2876 21.6758H0.60108C2.02609 25.9508 5.91953 28.8245 11.0793 28.8245C15.5873 28.8245 19.788 26.6498 21.3548 21.6826H15.7021C14.9761 23.3642 13.1425 24.3131 11.0421 24.3131Z" fill="#FF8110"/>
<path d="M43.1343 15.4998V27.1531H38.3055V16.5466C38.3055 14.1153 37.36 12.7646 34.8241 12.7646C32.1226 12.7646 30.6706 14.3517 30.6706 17.3908V27.1531H25.8418V1.14844H30.6706V11.11C32.0213 9.21897 33.8786 8.17217 36.4483 8.17217C40.6018 8.17217 43.1343 10.9411 43.1343 15.4998Z" fill="white"/>
<path d="M64.0376 17.8634C64.0376 23.4688 59.7795 27.5581 54.3429 27.5581C48.9062 27.5581 44.6852 23.4351 44.6852 17.8634C44.6615 16.587 44.8949 15.3189 45.3714 14.1346C45.8479 12.9503 46.5579 11.874 47.459 10.9698C48.3601 10.0655 49.4339 9.35182 50.6165 8.87117C51.7992 8.39051 53.0664 8.15273 54.3429 8.17198C59.7153 8.17198 64.0376 12.2579 64.0376 17.8634ZM49.5478 17.8634C49.5478 20.9363 51.6414 22.9623 54.3429 22.9623C57.0443 22.9623 59.1379 20.9363 59.1379 17.8634C59.1379 14.7905 57.0443 12.7644 54.3429 12.7644C51.6414 12.7644 49.5478 14.8243 49.5478 17.8634Z" fill="white"/>
<path d="M82.7308 8.57715V27.1495H77.902V24.5831C77.2783 25.5274 76.4234 26.2964 75.4186 26.8171C74.4139 27.3378 73.2926 27.5929 72.1615 27.5581C68.0756 27.5581 65.543 24.752 65.543 20.2271V8.57715H70.3718V19.1803C70.3718 21.6116 71.2835 22.9623 73.7823 22.9623C76.45 22.9623 77.902 21.3752 77.902 18.3361V8.57715H82.7308Z" fill="white"/>
<path d="M84.5312 21.0375H89.4276C89.799 22.5232 90.9134 23.5363 93.9187 23.5363C96.0461 23.5363 97.0591 23.0298 97.0591 22.0167C97.0591 20.7673 95.6071 20.666 92.8044 19.9906C87.5366 18.7412 85.3754 17.5594 85.3754 14.3514C85.3754 10.4343 88.6172 8.17188 93.5135 8.17188C98.68 8.17188 101.213 10.6707 101.854 14.115H96.9578C96.5864 12.9332 95.5734 12.224 93.3447 12.224C91.4199 12.224 90.238 12.7643 90.238 13.7773C90.238 14.6553 91.0822 14.8242 93.7837 15.432C99.0852 16.6476 102.057 17.6607 102.057 21.3751C102.057 25.532 98.3761 27.558 93.7837 27.558C88.8096 27.558 85.2066 25.1267 84.5312 21.0375Z" fill="white"/>
<path d="M109.284 2.83651C109.284 4.49113 108.035 5.70678 106.279 5.70678C104.59 5.70678 103.273 4.49113 103.273 2.83651C103.273 1.18188 104.59 0 106.279 0C108.035 0 109.284 1.18188 109.284 2.83651ZM103.847 8.57705H108.676V27.1494H103.847V8.57705Z" fill="white"/>
<path d="M128.868 15.4995V27.1529H124.039V16.5464C124.039 14.1151 123.127 12.7643 120.561 12.7643C117.826 12.7643 116.374 14.3514 116.374 17.3906V27.1529H111.545V8.5805H116.374V11.1131C117.007 10.1733 117.87 9.41036 118.88 8.89635C119.891 8.38235 121.015 8.13419 122.148 8.17529C126.335 8.17191 128.868 10.9409 128.868 15.4995Z" fill="white"/>
<path d="M149.906 8.5773V26.9167C149.906 32.4208 146.327 36.0002 140.721 36.0002C136.23 36.0002 132.009 33.7378 131.3 28.8752H136.298C136.838 30.9688 138.594 31.7117 140.586 31.7117C143.524 31.7117 145.077 30.1921 145.077 27.0517V24.3841C144.412 25.3054 143.533 26.0512 142.515 26.5571C141.497 27.063 140.372 27.3138 139.236 27.2881C134.373 27.2881 130.76 23.3001 130.76 17.7284C130.76 12.1567 134.44 8.17208 139.236 8.17208C140.378 8.15102 141.508 8.41099 142.527 8.92914C143.546 9.44729 144.422 10.2077 145.077 11.1437V8.5773H149.906ZM145.077 17.7284C145.077 14.8244 143.018 12.7645 140.316 12.7645C137.615 12.7645 135.622 14.8244 135.622 17.7284C135.622 20.6324 137.648 22.6923 140.316 22.6923C142.984 22.6923 145.077 20.6662 145.077 17.7284Z" fill="white"/>
<path d="M157.273 25.9331C157.274 26.2832 157.171 26.6256 156.977 26.917C156.783 27.2084 156.507 27.4358 156.183 27.5702C155.86 27.7047 155.504 27.7402 155.161 27.6723C154.817 27.6044 154.502 27.4361 154.254 27.1888C154.006 26.9415 153.837 26.6262 153.769 26.2829C153.7 25.9395 153.735 25.5836 153.869 25.2601C154.003 24.9366 154.229 24.66 154.52 24.4654C154.811 24.2709 155.154 24.167 155.504 24.167C155.972 24.1679 156.421 24.3541 156.753 24.685C157.084 25.0159 157.271 25.4646 157.273 25.9331ZM156.905 25.9331C156.903 25.6557 156.818 25.3853 156.662 25.156C156.506 24.9267 156.285 24.7487 156.028 24.6446C155.771 24.5404 155.489 24.5147 155.217 24.5707C154.945 24.6267 154.696 24.7619 154.501 24.9592C154.306 25.1565 154.174 25.4072 154.121 25.6795C154.069 25.9519 154.098 26.2337 154.205 26.4895C154.312 26.7454 154.493 26.9637 154.724 27.1171C154.955 27.2705 155.226 27.352 155.504 27.3513C155.689 27.3513 155.873 27.3145 156.044 27.243C156.215 27.1716 156.37 27.0668 156.501 26.9349C156.631 26.803 156.734 26.6465 156.803 26.4745C156.873 26.3025 156.907 26.1185 156.905 25.9331ZM155.892 26.1627L156.365 26.7908H155.821L155.396 26.2032H155.284V26.7908H154.832V25.1024H155.71C155.784 25.0973 155.859 25.1083 155.929 25.1348C155.999 25.1613 156.063 25.2025 156.115 25.2557C156.168 25.3089 156.208 25.3728 156.234 25.4431C156.259 25.5134 156.27 25.5884 156.264 25.6629C156.265 25.7775 156.228 25.8893 156.158 25.98C156.088 26.0708 155.99 26.1352 155.879 26.1627H155.892ZM155.592 25.4873H155.284V25.8723H155.592C155.754 25.8723 155.808 25.8014 155.808 25.6764C155.808 25.5515 155.74 25.4772 155.578 25.4772L155.592 25.4873Z" fill="white"/>
</svg>
