<svg width="148" height="34" viewBox="0 0 148 34" fill="none" xmlns="http://www.w3.org/2000/svg">
<path d="M10.3179 6.53796C4.28033 6.53796 1.03495e-05 10.9658 1.03495e-05 16.9025C-0.000589401 17.3366 0.024878 17.7703 0.0762744 18.2013H20.4134C20.9218 11.6852 16.8607 6.53796 10.3179 6.53796ZM5.50374 14.4228C6.13927 12.2996 7.76624 10.7876 10.2702 10.7876C12.7742 10.7876 14.3663 12.2614 14.9414 14.4228H5.50374ZM10.391 22.9506C8.4685 22.9506 6.80658 22.1198 5.91683 20.4646H0.565636C1.90661 24.4945 5.57047 27.2034 10.4259 27.2034C14.6681 27.2034 18.6212 25.1534 20.0956 20.4709H14.7762C14.093 22.0562 12.3675 22.9506 10.391 22.9506Z" fill="#FF8110"/>
<path d="M40.5917 14.6431V25.6284H36.0476V15.6299C36.0476 13.3379 35.1579 12.0647 32.7715 12.0647C30.2293 12.0647 28.8629 13.5608 28.8629 16.4257V25.6284H24.3188V1.11438H28.8629V10.5049C30.134 8.72228 31.8817 7.73548 34.2999 7.73548C38.2084 7.73548 40.5917 10.3457 40.5917 14.6431Z" fill="#101C21"/>
<path d="M60.2616 16.8712C60.2616 22.1554 56.2546 26.0103 51.1385 26.0103C46.0225 26.0103 42.0504 22.1235 42.0504 16.8712C42.0281 15.668 42.2477 14.4727 42.6961 13.3562C43.1445 12.2398 43.8126 11.2252 44.6606 10.3728C45.5085 9.52038 46.519 8.8476 47.6319 8.3945C48.7448 7.9414 49.9373 7.71725 51.1385 7.73539C56.1942 7.73539 60.2616 11.5871 60.2616 16.8712ZM46.6262 16.8712C46.6262 19.768 48.5964 21.6779 51.1385 21.6779C53.6806 21.6779 55.6508 19.768 55.6508 16.8712C55.6508 13.9745 53.6806 12.0646 51.1385 12.0646C48.5964 12.0646 46.6262 14.0063 46.6262 16.8712Z" fill="#101C21"/>
<path d="M77.8531 8.11731V25.625H73.309V23.2058C72.722 24.0959 71.9175 24.8208 70.972 25.3117C70.0265 25.8025 68.9714 26.043 67.9069 26.0102C64.062 26.0102 61.6787 23.3649 61.6787 19.0994V8.11731H66.2228V18.1126C66.2228 20.4045 67.0807 21.6778 69.4322 21.6778C71.9426 21.6778 73.309 20.1817 73.309 17.3168V8.11731H77.8531Z" fill="#101C21"/>
<path d="M79.5464 19.8633H84.154C84.5035 21.2639 85.5522 22.2189 88.3803 22.2189C90.3822 22.2189 91.3355 21.7414 91.3355 20.7864C91.3355 19.6086 89.9691 19.5131 87.3317 18.8765C82.3745 17.6987 80.3408 16.5846 80.3408 13.5605C80.3408 9.86799 83.3914 7.73523 87.999 7.73523C92.8608 7.73523 95.2441 10.0908 95.8478 13.3377H91.2402C90.8907 12.2236 89.9374 11.5551 87.8401 11.5551C86.0288 11.5551 84.9167 12.0644 84.9167 13.0194C84.9167 13.847 85.7111 14.0062 88.2532 14.5792C93.2421 15.7251 96.0385 16.6801 96.0385 20.1816C96.0385 24.1002 92.5748 26.0101 88.2532 26.0101C83.5725 26.0101 80.1819 23.7182 79.5464 19.8633Z" fill="#101C21"/>
<path d="M102.839 2.70564C102.839 4.26542 101.663 5.41138 100.011 5.41138C98.4219 5.41138 97.1826 4.26542 97.1826 2.70564C97.1826 1.14587 98.4219 0.0317383 100.011 0.0317383C101.663 0.0317383 102.839 1.14587 102.839 2.70564ZM97.7228 8.11712H102.267V25.6248H97.7228V8.11712Z" fill="#101C21"/>
<path d="M121.269 14.6429V25.6282H116.725V15.6297C116.725 13.3378 115.867 12.0645 113.452 12.0645C110.878 12.0645 109.512 13.5606 109.512 16.4255V25.6282H104.968V8.1205H109.512V10.5079C110.108 9.62195 110.92 8.90278 111.871 8.41824C112.821 7.9337 113.88 7.69977 114.946 7.73851C118.886 7.73533 121.269 10.3456 121.269 14.6429Z" fill="#101C21"/>
<path d="M141.066 8.11748V25.4055C141.066 30.5942 137.698 33.9684 132.423 33.9684C128.197 33.9684 124.225 31.8357 123.557 27.2518H128.26C128.769 29.2254 130.421 29.9257 132.296 29.9257C135.06 29.9257 136.522 28.4933 136.522 25.5329V23.0181C135.896 23.8867 135.068 24.5897 134.111 25.0666C133.153 25.5435 132.094 25.78 131.025 25.7557C126.449 25.7557 123.049 21.9963 123.049 16.744C123.049 11.4917 126.512 7.73549 131.025 7.73549C132.1 7.71564 133.164 7.9607 134.122 8.44915C135.081 8.93759 135.905 9.65446 136.522 10.5367V8.11748H141.066ZM136.522 16.744C136.522 14.0064 134.584 12.0647 132.042 12.0647C129.499 12.0647 127.625 14.0064 127.625 16.744C127.625 19.4816 129.531 21.4233 132.042 21.4233C134.552 21.4233 136.522 19.5134 136.522 16.744Z" fill="#101C21"/>
<path d="M148 24.4792C148.001 24.8092 147.904 25.132 147.721 25.4067C147.538 25.6814 147.279 25.8957 146.974 26.0225C146.67 26.1492 146.335 26.1827 146.012 26.1187C145.689 26.0547 145.392 25.8961 145.159 25.6629C144.926 25.4298 144.767 25.1326 144.702 24.8089C144.638 24.4853 144.67 24.1497 144.796 23.8448C144.922 23.5398 145.136 23.2791 145.41 23.0957C145.684 22.9122 146.006 22.8143 146.335 22.8143C146.776 22.8152 147.198 22.9907 147.51 23.3027C147.822 23.6146 147.998 24.0376 148 24.4792ZM147.654 24.4792C147.651 24.2177 147.572 23.9628 147.425 23.7466C147.278 23.5305 147.07 23.3627 146.828 23.2646C146.586 23.1664 146.321 23.1421 146.065 23.1949C145.809 23.2477 145.575 23.3751 145.392 23.5612C145.208 23.7472 145.084 23.9834 145.034 24.2401C144.984 24.4969 145.012 24.7626 145.113 25.0037C145.214 25.2449 145.384 25.4508 145.601 25.5953C145.819 25.7399 146.074 25.8167 146.335 25.8161C146.51 25.8161 146.682 25.7814 146.843 25.714C147.004 25.6467 147.151 25.5479 147.273 25.4236C147.396 25.2992 147.493 25.1517 147.558 24.9896C147.623 24.8275 147.656 24.654 147.654 24.4792ZM146.7 24.6956L147.145 25.2877H146.634L146.233 24.7338H146.128V25.2877H145.703V23.6961H146.529C146.599 23.6913 146.67 23.7017 146.735 23.7266C146.801 23.7516 146.861 23.7905 146.91 23.8406C146.96 23.8908 146.998 23.951 147.022 24.0173C147.046 24.0835 147.056 24.1542 147.05 24.2245C147.052 24.3325 147.017 24.4379 146.951 24.5234C146.885 24.609 146.792 24.6697 146.688 24.6956H146.7ZM146.418 24.059H146.128V24.4219H146.418C146.57 24.4219 146.621 24.355 146.621 24.2372C146.621 24.1195 146.557 24.0494 146.405 24.0494L146.418 24.059Z" fill="black"/>
</svg>
